<?xml version="1.0" encoding="UTF-8"?>
<svg id="_레이어_1" data-name="레이어 1" xmlns="http://www.w3.org/2000/svg" viewBox="0 0 1920 1080">
  <defs>
    <style>
      .cls-1 {
        fill: #29abe2;
      }

      .cls-2 {
        fill: #231815;
      }

      .cls-3 {
        fill: #0071bc;
      }

      .cls-4 {
        fill: #93278f;
      }

      .cls-5 {
        fill: #fff;
      }

      .cls-6 {
        fill: none;
        stroke: #e50012;
        stroke-miterlimit: 10;
      }

      .cls-7 {
        fill: red;
      }

      .cls-8 {
        fill: #fcee21;
      }

      .cls-9 {
        fill: #f0f;
      }

      .cls-10 {
        fill: #f15a24;
      }

      .cls-11 {
        fill: #e50012;
      }
    </style>
  </defs>
  <g>
    <path class="cls-1" d="M340.35,375.33c0,1.15-3.53,1.19-4.27.24-1.59-2.04-2.79-6.06-1.93-8.3,3.81.45,6.22,5.31,6.2,8.06Z"/>
    <g>
      <path class="cls-1" d="M529.82,488.32c-.03.17-.13,1.09-.13,1.16l.04,1.91-1.46,3.39-2.31.2-1.51,9.65,3.3-1.34.18,4.14c-4.25,18.66-5.84,50.69-27.65,52.13l-10.39.68,3.05-1.04c1.49-.51,4.2-1.49,4.98-2.61l4.07-5.85c2.61,9.41,11.71-9.21,10.04-17.4,1.22.24,2.07,1.78,2.59,3.36l.82,2.48c2.57,7.83,10-36.41-7.12-69.05-3.35-6.39-7.41-10.9-12.07-16.04-9.62-10.61-18.59-21.36-27.12-32.82-4-5.38-5.28-11.06-5.36-17.7l-.14-12.06-2.58,10.51-.28-15.78-2.41,6.46-.9-10.2c-1.74,8.16-2.79,16.4-2.87,25.1-.06,6.45.65,11.95-1.1,18.35-5.27-7.42-3.48-14.42-12.44-17.54l-2.05,3.53c-8.48-12.81-15.67-25.01-22.97-38.56-3.54-6.59-9.49-15.21-13.9-20.05-.28-.3-2.18-.54-2.42-.73s.25.88.42,1.3l11.17,19.77c.89,1.58,2.14,3.63,2.69,4.94l-.92.75,1.54,3.94c2.25,5.78,4.62,10.89,7.66,16.35,1.21,2.16,2.04,4.95,2.93,6.99,4.66,10.75,12.64,20.1,22.17,27.56,1.03,2.83,2.12,7.87,2.56,10.43l-4.3-1.06c.86,3.74,1.48,6.35,2.62,9.51,7.71,21.3-.88,19.29,6.85,33.26.11,2.95-.04,5.41-1.17,9.45-1.75,6.25-4.46,18.4-5.46,24.64l-3.14-1.49-1.84-.87c-2.07-.98-.14,27.13,24.19,39.68-.82-.11-2.66-.27-3.68-.5l-26.13-5.99c-8.93-2.05-15.6-6.88-23.27-11.76-6.04-3.84-15.3-6.35-22.49-5.26l-17.04,2.58c-16.7,2.53-32.51-4.95-42.8-18.72,1.43-1.93,3.88-2.08,5.89-.84,6.87,4.22,13.99,6.6,22.21,8.01-11.03-10.49-25.43-19.96-23.88-36.88,1.87-14.49,8.14-27.58,18.45-38.18.93,6.5,1.36,24.78,8.69,25.01l3.93-4.1c5.03-2.83,9.36-5.7,13.01-10.15,2.21-2.7,1.55-6.78-1.4-8.49-13.71-7.96-13.86-25.06-6.6-30.52,3.33-2.51,8.23-5.11,11.75-7.16,1.45-1.29,1.08-6.16.43-8.03l-3.77-.17c.93-.25,3.03-2.16,3.87-1.57,1.44,1.01,3.18,4.42,3.23,6.13.22,7.06-9.57,8.44-12.8,17.47,11.1,2.38,18.22-9.89,18.27-19.98.03-5.39-5.63-11.72-11.4-10.79-11.32,1.82-15.26,9.02-25.69,2.58-.59,3.39,2.52,6.63,5.93,6.77l14.76.41c-4.46,5.26-11.06,4.57-17.48,2.45-10.79-3.56-17.17-13.95-14.14-25.29,6.24-1.34,14.23.35,20.11-2.06,8.54-3.5,8.34-16.1,2.86-22.11-3.84-4.22-7.38-7.46-11.78-10.63-8.21-5.91-11.92-17.58-4.6-22.76,1.16,5.85,1.92,10.93,4.32,15.83,2.71,5.52,8.7,7.34,14.29,6.94,2.7,3.76,5.49,7.35,8.78,10.31,3.8,3.42,8.9,2.36,11.76-1.72,3.41-4.87,1.2-11.13-3.53-14.55l-9.84-7.1,19,1.49c-.1-2.95.69-9.29-1.92-11.42-15.54-12.67-26.71-29.33-30.6-49.11-.29-1.48-2.3-4.15-3.56-4.75l-9.63-4.55c.52-5.19,11.81-1.6,15.69-.52,5.6,1.55,17.96,10.95,22.84,14.21l11.24,7.5,19.73,14.34,21.17,15.28c-.56-4.19-1.32-6.17-2.71-10.46,15.91,4.36,35.59,18.68,27.6,38.93-1.78,4.52,5.96,5.98,8.92,12.06l9.11,18.69c9.79,6.67,17.29,14.48,25.1,23.07,4.18,4.6,10.09,7.02,11.04,14.12l1.96,14.64c1.95,14.55,7.72,43.11,6.97,57.81ZM417.39,353.72c-.72-6.03-3.03-10.54-7.1-13.48-2.85,6.3,1.18,13.23,7.1,13.48ZM420.15,496.33l-6.03-7.1c-12.38-14.58-18.27-23.57-20.93-43.43-2.4,4.15-1.49,7.95-1.18,12.83l-3.26-4.11c2.21,9.39,6.4,17.06,11.65,24.71,3.15,4.58,14.05,15.54,19.75,17.09Z"/>
      <path class="cls-5" d="M449.91,444.66c.17.98,1.44,2.72,2.22,3.46l7.5,7.12-.64-3.97-.87-5.83.86-.79c6.61,7.54,11.98,16.02,16.22,25.65,2.05,4.65,2.88,9.91,2.7,14.97l-.7,20.25c3.83-7.83,1.95-18.89,5.45-27.02,12.01,13.03,23.09,34.06,24.53,50.85l2.21-3.69c1.25,2.94,2.14,5.22,2.65,7.68,1.67,8.2-7.43,26.81-10.04,17.4l-4.07,5.85c-.78,1.12-3.49,2.1-4.98,2.61l-3.05,1.04c-6.91-.33-15.78.87-22.24-2.46-24.33-12.56-26.26-40.66-24.19-39.68l1.84.87,3.14,1.49c-.08.47-.35,1.35-.5,1.86.87.98,2.25,1.69,1.56-.38-.64-1.99.27-5.13,2.26-6.44l5.33,5.14,2.37-13.54c.89-5.08-.39-19.56-4.4-20.73-7.73-13.97.86-11.96-6.85-33.26-1.14-3.16-1.77-5.76-2.62-9.51l4.3,1.06Z"/>
      <path class="cls-3" d="M380.97,406.64l-3.83,1.02-14.76-.41c-3.42-.13-6.53-3.38-5.93-6.77,10.44,6.44,14.38-.75,25.69-2.58,5.77-.93,11.43,5.4,11.4,10.79-.05,10.09-7.17,22.36-18.27,19.98,3.23-9.03,13.03-10.41,12.8-17.47-.05-1.71-1.79-5.12-3.23-6.13-.84-.59-2.95,1.32-3.87,1.57Z"/>
      <path class="cls-5" d="M527.94,507.44l-.18-4.14-3.3,1.34,1.51-9.65,2.31-.2,1.46-3.39c.07,3.06.13,7.59-.7,11.22l-1.1,4.82Z"/>
      <path class="cls-5" d="M529.69,489.48c0-.07.1-.99.13-1.16-.02.3-.14.86-.13,1.16Z"/>
      <path class="cls-3" d="M512.03,533.36c-.5-2.47-1.4-4.74-2.65-7.68l-2.21,3.69c-1.44-16.79-12.51-37.83-24.53-50.85-3.5,8.13-1.62,19.19-5.45,27.02l.7-20.25c.17-5.05-.65-10.32-2.7-14.97-4.24-9.63-9.61-18.11-16.22-25.65-1.12-5.08-7.94-14.33-12.08-17.56l11.22,18.34.87,5.83.64,3.97-7.5-7.12c-.78-.74-2.05-2.48-2.22-3.46-.44-2.56-1.53-7.6-2.56-10.43-9.53-7.46-17.51-16.81-22.17-27.56.77.1,2.43.87,3.05,1.55l6.82,7.51c.82.9,2.9,2.25,3.92,2.85,1.67,2.69,3.96,4.92,6.95,6.87-2.37-2.91-4.54-5.56-6.89-8.03-10.72-11.25-19.09-24.44-25.05-38.78-.54-1.31-1.79-3.36-2.69-4.94l-11.17-19.77c-.17-.42-.66-1.5-.42-1.3s2.14.43,2.42.73c4.4,4.84,10.35,13.47,13.9,20.05,7.29,13.55,14.49,25.74,22.97,38.56l2.05-3.53c8.95,3.12,7.16,10.12,12.44,17.54,1.75-6.41,1.03-11.91,1.1-18.35.09-8.7,1.13-16.94,2.87-25.1l.9,10.2,2.41-6.46.28,15.78,2.58-10.51.14,12.06c.08,6.63,1.36,12.32,5.36,17.7,8.53,11.46,17.49,22.21,27.12,32.82,4.67,5.14,8.72,9.65,12.07,16.04,17.12,32.65,9.69,76.88,7.12,69.05l-.82-2.48c-.52-1.57-1.37-3.11-2.59-3.36ZM440.97,413.09c0-.27-.22-.5-.5-.5s-.5.22-.5.5.22.5.5.5.5-.22.5-.5Z"/>
      <path class="cls-3" d="M420.15,496.33c-5.69-1.55-16.6-12.5-19.75-17.09-5.25-7.65-9.44-15.32-11.65-24.71l3.26,4.11c-.31-4.89-1.22-8.68,1.18-12.83,2.66,19.85,8.55,28.85,20.93,43.43l6.03,7.1Z"/>
      <path class="cls-3" d="M449.52,521.94l-1.56.38c.15-.51.42-1.38.5-1.86,1-6.24,3.71-18.39,5.46-24.64,1.13-4.04,1.28-6.5,1.17-9.45,4.01,1.17,5.29,15.65,4.4,20.73l-2.37,13.54-5.33-5.14c-2,1.3-2.9,4.44-2.26,6.44Z"/>
      <path class="cls-5" d="M439.03,417.42l-.06,1.16c-1.02-.59-3.1-1.94-3.92-2.85l-6.82-7.51c-.62-.68-2.28-1.45-3.05-1.55-.89-2.05-1.72-4.83-2.93-6.99-3.04-5.46-5.41-10.57-7.66-16.35l-1.54-3.94.92-.75c5.96,14.35,14.34,27.53,25.05,38.78Z"/>
      <path class="cls-3" d="M417.39,353.72c-5.92-.25-9.95-7.18-7.1-13.48,4.08,2.94,6.38,7.45,7.1,13.48Z"/>
      <path class="cls-1" d="M458.98,444.65l-.86.79-11.22-18.34c4.14,3.23,10.96,12.48,12.08,17.56Z"/>
      <path class="cls-1" d="M449.52,521.94c.7,2.07-.69,1.36-1.56.38l1.56-.38Z"/>
      <path class="cls-1" d="M438.97,418.58l.06-1.16c2.35,2.47,4.52,5.12,6.89,8.03-2.98-1.95-5.28-4.18-6.95-6.87Z"/>
      <circle class="cls-1" cx="440.47" cy="413.09" r=".5"/>
    </g>
    <g>
      <polyline class="cls-6" points="158.02 181.7 158.02 163.59 176.13 163.59"/>
      <polyline class="cls-6" points="658.02 645.48 658.02 663.59 639.91 663.59"/>
    </g>
  </g>
  <g>
    <path class="cls-11" d="M840.35,375.33c0,1.15-3.53,1.19-4.27.24-1.59-2.04-2.79-6.06-1.93-8.3,3.81.45,6.22,5.31,6.2,8.06Z"/>
    <g>
      <path class="cls-10" d="M1029.82,488.32c-.03.17-.13,1.09-.13,1.16l.04,1.91-1.46,3.39-2.31.2-1.51,9.65,3.3-1.34.18,4.14c-4.25,18.66-5.84,50.69-27.65,52.13l-10.39.68,3.05-1.04c1.49-.51,4.2-1.49,4.98-2.61l4.07-5.85c2.61,9.41,11.71-9.21,10.04-17.4,1.22.24,2.07,1.78,2.59,3.36l.82,2.48c2.57,7.83,10-36.41-7.12-69.05-3.35-6.39-7.41-10.9-12.07-16.04-9.62-10.61-18.59-21.36-27.12-32.82-4-5.38-5.28-11.06-5.36-17.7l-.14-12.06-2.58,10.51-.28-15.78-2.41,6.46-.9-10.2c-1.74,8.16-2.79,16.4-2.87,25.1-.06,6.45.65,11.95-1.1,18.35-5.27-7.42-3.48-14.42-12.44-17.54l-2.05,3.53c-8.48-12.81-15.67-25.01-22.97-38.56-3.54-6.59-9.49-15.21-13.9-20.05-.28-.3-2.18-.54-2.42-.73s.25.88.42,1.3l11.17,19.77c.89,1.58,2.14,3.63,2.69,4.94l-.92.75,1.54,3.94c2.25,5.78,4.62,10.89,7.66,16.35,1.21,2.16,2.04,4.95,2.93,6.99,4.66,10.75,12.64,20.1,22.17,27.56,1.03,2.83,2.12,7.87,2.56,10.43l-4.3-1.06c.86,3.74,1.48,6.35,2.62,9.51,7.71,21.3-.88,19.29,6.85,33.26.11,2.95-.04,5.41-1.17,9.45-1.75,6.25-4.46,18.4-5.46,24.64l-3.14-1.49-1.84-.87c-2.07-.98-.14,27.13,24.19,39.68-.82-.11-2.66-.27-3.68-.5l-26.13-5.99c-8.93-2.05-15.6-6.88-23.27-11.76-6.04-3.84-15.3-6.35-22.49-5.26l-17.04,2.58c-16.7,2.53-32.51-4.95-42.8-18.72,1.43-1.93,3.88-2.08,5.89-.84,6.87,4.22,13.99,6.6,22.21,8.01-11.03-10.49-25.43-19.96-23.88-36.88,1.87-14.49,8.14-27.58,18.45-38.18.93,6.5,1.36,24.78,8.69,25.01l3.93-4.1c5.03-2.83,9.36-5.7,13.01-10.15,2.21-2.7,1.55-6.78-1.4-8.49-13.71-7.96-13.86-25.06-6.6-30.52,3.33-2.51,8.23-5.11,11.75-7.16,1.45-1.29,1.08-6.16.43-8.03l-3.77-.17c.93-.25,3.03-2.16,3.87-1.57,1.44,1.01,3.18,4.42,3.23,6.13.22,7.06-9.57,8.44-12.8,17.47,11.1,2.38,18.22-9.89,18.27-19.98.03-5.39-5.63-11.72-11.4-10.79-11.32,1.82-15.26,9.02-25.69,2.58-.59,3.39,2.52,6.63,5.93,6.77l14.76.41c-4.46,5.26-11.06,4.57-17.48,2.45-10.79-3.56-17.17-13.95-14.14-25.29,6.24-1.34,14.23.35,20.11-2.06,8.54-3.5,8.34-16.1,2.86-22.11-3.84-4.22-7.38-7.46-11.78-10.63-8.21-5.91-11.92-17.58-4.6-22.76,1.16,5.85,1.92,10.93,4.32,15.83,2.71,5.52,8.7,7.34,14.29,6.94,2.7,3.76,5.49,7.35,8.78,10.31,3.8,3.42,8.9,2.36,11.76-1.72,3.41-4.87,1.2-11.13-3.53-14.55l-9.84-7.1,19,1.49c-.1-2.95.69-9.29-1.92-11.42-15.54-12.67-26.71-29.33-30.6-49.11-.29-1.48-2.3-4.15-3.56-4.75l-9.63-4.55c.52-5.19,11.81-1.6,15.69-.52,5.6,1.55,17.96,10.95,22.84,14.21l11.24,7.5,19.73,14.34,21.17,15.28c-.56-4.19-1.32-6.17-2.71-10.46,15.91,4.36,35.59,18.68,27.6,38.93-1.78,4.52,5.96,5.98,8.92,12.06l9.11,18.69c9.79,6.67,17.29,14.48,25.1,23.07,4.18,4.6,10.09,7.02,11.04,14.12l1.96,14.64c1.95,14.55,7.72,43.11,6.97,57.81ZM917.39,353.72c-.72-6.03-3.03-10.54-7.1-13.48-2.85,6.3,1.18,13.23,7.1,13.48ZM920.15,496.33l-6.03-7.1c-12.38-14.58-18.27-23.57-20.93-43.43-2.4,4.15-1.49,7.95-1.18,12.83l-3.26-4.11c2.21,9.39,6.4,17.06,11.65,24.71,3.15,4.58,14.05,15.54,19.75,17.09Z"/>
      <path class="cls-7" d="M949.91,444.66c.17.98,1.44,2.72,2.22,3.46l7.5,7.12-.64-3.97-.87-5.83.86-.79c6.61,7.54,11.98,16.02,16.22,25.65,2.05,4.65,2.88,9.91,2.7,14.97l-.7,20.25c3.83-7.83,1.95-18.89,5.45-27.02,12.01,13.03,23.09,34.06,24.53,50.85l2.21-3.69c1.25,2.94,2.14,5.22,2.65,7.68,1.67,8.2-7.43,26.81-10.04,17.4l-4.07,5.85c-.78,1.12-3.49,2.1-4.98,2.61l-3.05,1.04c-6.91-.33-15.78.87-22.24-2.46-24.33-12.56-26.26-40.66-24.19-39.68l1.84.87,3.14,1.49c-.08.47-.35,1.35-.5,1.86.87.98,2.25,1.69,1.56-.38-.64-1.99.27-5.13,2.26-6.44l5.33,5.14,2.37-13.54c.89-5.08-.39-19.56-4.4-20.73-7.73-13.97.86-11.96-6.85-33.26-1.14-3.16-1.77-5.76-2.62-9.51l4.3,1.06Z"/>
      <path class="cls-8" d="M880.97,406.64l-3.83,1.02-14.76-.41c-3.42-.13-6.53-3.38-5.93-6.77,10.44,6.44,14.38-.75,25.69-2.58,5.77-.93,11.43,5.4,11.4,10.79-.05,10.09-7.17,22.36-18.27,19.98,3.23-9.03,13.03-10.41,12.8-17.47-.05-1.71-1.79-5.12-3.23-6.13-.84-.59-2.95,1.32-3.87,1.57Z"/>
      <path class="cls-7" d="M1027.94,507.44l-.18-4.14-3.3,1.34,1.51-9.65,2.31-.2,1.46-3.39c.07,3.06.13,7.59-.7,11.22l-1.1,4.82Z"/>
      <path class="cls-7" d="M1029.69,489.48c0-.07.1-.99.13-1.16-.02.3-.14.86-.13,1.16Z"/>
      <path class="cls-8" d="M1012.03,533.36c-.5-2.47-1.4-4.74-2.65-7.68l-2.21,3.69c-1.44-16.79-12.51-37.83-24.53-50.85-3.5,8.13-1.62,19.19-5.45,27.02l.7-20.25c.17-5.05-.65-10.32-2.7-14.97-4.24-9.63-9.61-18.11-16.22-25.65-1.12-5.08-7.94-14.33-12.08-17.56l11.22,18.34.87,5.83.64,3.97-7.5-7.12c-.78-.74-2.05-2.48-2.22-3.46-.44-2.56-1.53-7.6-2.56-10.43-9.53-7.46-17.51-16.81-22.17-27.56.77.1,2.43.87,3.05,1.55l6.82,7.51c.82.9,2.9,2.25,3.92,2.85,1.67,2.69,3.96,4.92,6.95,6.87-2.37-2.91-4.54-5.56-6.89-8.03-10.72-11.25-19.09-24.44-25.05-38.78-.54-1.31-1.79-3.36-2.69-4.94l-11.17-19.77c-.17-.42-.66-1.5-.42-1.3s2.14.43,2.42.73c4.4,4.84,10.35,13.47,13.9,20.05,7.29,13.55,14.49,25.74,22.97,38.56l2.05-3.53c8.95,3.12,7.16,10.12,12.44,17.54,1.75-6.41,1.03-11.91,1.1-18.35.09-8.7,1.13-16.94,2.87-25.1l.9,10.2,2.41-6.46.28,15.78,2.58-10.51.14,12.06c.08,6.63,1.36,12.32,5.36,17.7,8.53,11.46,17.49,22.21,27.12,32.82,4.67,5.14,8.72,9.65,12.07,16.04,17.12,32.65,9.69,76.88,7.12,69.05l-.82-2.48c-.52-1.57-1.37-3.11-2.59-3.36ZM940.97,413.09c0-.27-.22-.5-.5-.5s-.5.22-.5.5.22.5.5.5.5-.22.5-.5Z"/>
      <path class="cls-8" d="M920.15,496.33c-5.69-1.55-16.6-12.5-19.75-17.09-5.25-7.65-9.44-15.32-11.65-24.71l3.26,4.11c-.31-4.89-1.22-8.68,1.18-12.83,2.66,19.85,8.55,28.85,20.93,43.43l6.03,7.1Z"/>
      <path class="cls-8" d="M949.52,521.94l-1.56.38c.15-.51.42-1.38.5-1.86,1-6.24,3.71-18.39,5.46-24.64,1.13-4.04,1.28-6.5,1.17-9.45,4.01,1.17,5.29,15.65,4.4,20.73l-2.37,13.54-5.33-5.14c-2,1.3-2.9,4.44-2.26,6.44Z"/>
      <path class="cls-7" d="M939.03,417.42l-.06,1.16c-1.02-.59-3.1-1.94-3.92-2.85l-6.82-7.51c-.62-.68-2.28-1.45-3.05-1.55-.89-2.05-1.72-4.83-2.93-6.99-3.04-5.46-5.41-10.57-7.66-16.35l-1.54-3.94.92-.75c5.96,14.35,14.34,27.53,25.05,38.78Z"/>
      <path class="cls-8" d="M917.39,353.72c-5.92-.25-9.95-7.18-7.1-13.48,4.08,2.94,6.38,7.45,7.1,13.48Z"/>
      <path class="cls-11" d="M958.98,444.65l-.86.79-11.22-18.34c4.14,3.23,10.96,12.48,12.08,17.56Z"/>
      <path class="cls-11" d="M949.52,521.94c.7,2.07-.69,1.36-1.56.38l1.56-.38Z"/>
      <path class="cls-11" d="M938.97,418.58l.06-1.16c2.35,2.47,4.52,5.12,6.89,8.03-2.98-1.95-5.28-4.18-6.95-6.87Z"/>
      <circle class="cls-11" cx="940.47" cy="413.09" r=".5"/>
    </g>
    <g>
      <polyline class="cls-6" points="658.02 181.7 658.02 163.59 676.13 163.59"/>
      <polyline class="cls-6" points="1158.02 645.48 1158.02 663.59 1139.91 663.59"/>
    </g>
  </g>
  <g>
    <path class="cls-4" d="M1340.35,375.33c0,1.15-3.53,1.19-4.27.24-1.59-2.04-2.79-6.06-1.93-8.3,3.81.45,6.22,5.31,6.2,8.06Z"/>
    <g>
      <path class="cls-4" d="M1529.82,488.32c-.03.17-.13,1.09-.13,1.16l.04,1.91-1.46,3.39-2.31.2-1.51,9.65,3.3-1.34.18,4.14c-4.25,18.66-5.84,50.69-27.65,52.13l-10.39.68,3.05-1.04c1.49-.51,4.2-1.49,4.98-2.61l4.07-5.85c2.61,9.41,11.71-9.21,10.04-17.4,1.22.24,2.07,1.78,2.59,3.36l.82,2.48c2.57,7.83,10-36.41-7.12-69.05-3.35-6.39-7.41-10.9-12.07-16.04-9.62-10.61-18.59-21.36-27.12-32.82-4-5.38-5.28-11.06-5.36-17.7l-.14-12.06-2.58,10.51-.28-15.78-2.41,6.46-.9-10.2c-1.74,8.16-2.79,16.4-2.87,25.1-.06,6.45.65,11.95-1.1,18.35-5.27-7.42-3.48-14.42-12.44-17.54l-2.05,3.53c-8.48-12.81-15.67-25.01-22.97-38.56-3.54-6.59-9.49-15.21-13.9-20.05-.28-.3-2.18-.54-2.42-.73s.25.88.42,1.3l11.17,19.77c.89,1.58,2.14,3.63,2.69,4.94l-.92.75,1.54,3.94c2.25,5.78,4.62,10.89,7.66,16.35,1.21,2.16,2.04,4.95,2.93,6.99,4.66,10.75,12.64,20.1,22.17,27.56,1.03,2.83,2.12,7.87,2.56,10.43l-4.3-1.06c.86,3.74,1.48,6.35,2.62,9.51,7.71,21.3-.88,19.29,6.85,33.26.11,2.95-.04,5.41-1.17,9.45-1.75,6.25-4.46,18.4-5.46,24.64l-3.14-1.49-1.84-.87c-2.07-.98-.14,27.13,24.19,39.68-.82-.11-2.66-.27-3.68-.5l-26.13-5.99c-8.93-2.05-15.6-6.88-23.27-11.76-6.04-3.84-15.3-6.35-22.49-5.26l-17.04,2.58c-16.7,2.53-32.51-4.95-42.8-18.72,1.43-1.93,3.88-2.08,5.89-.84,6.87,4.22,13.99,6.6,22.21,8.01-11.03-10.49-25.43-19.96-23.88-36.88,1.87-14.49,8.14-27.58,18.45-38.18.93,6.5,1.36,24.78,8.69,25.01l3.93-4.1c5.03-2.83,9.36-5.7,13.01-10.15,2.21-2.7,1.55-6.78-1.4-8.49-13.71-7.96-13.86-25.06-6.6-30.52,3.33-2.51,8.23-5.11,11.75-7.16,1.45-1.29,1.08-6.16.43-8.03l-3.77-.17c.93-.25,3.03-2.16,3.87-1.57,1.44,1.01,3.18,4.42,3.23,6.13.22,7.06-9.57,8.44-12.8,17.47,11.1,2.38,18.22-9.89,18.27-19.98.03-5.39-5.63-11.72-11.4-10.79-11.32,1.82-15.26,9.02-25.69,2.58-.59,3.39,2.52,6.63,5.93,6.77l14.76.41c-4.46,5.26-11.06,4.57-17.48,2.45-10.79-3.56-17.17-13.95-14.14-25.29,6.24-1.34,14.23.35,20.11-2.06,8.54-3.5,8.34-16.1,2.86-22.11-3.84-4.22-7.38-7.46-11.78-10.63-8.21-5.91-11.92-17.58-4.6-22.76,1.16,5.85,1.92,10.93,4.32,15.83,2.71,5.52,8.7,7.34,14.29,6.94,2.7,3.76,5.49,7.35,8.78,10.31,3.8,3.42,8.9,2.36,11.76-1.72,3.41-4.87,1.2-11.13-3.53-14.55l-9.84-7.1,19,1.49c-.1-2.95.69-9.29-1.92-11.42-15.54-12.67-26.71-29.33-30.6-49.11-.29-1.48-2.3-4.15-3.56-4.75l-9.63-4.55c.52-5.19,11.81-1.6,15.69-.52,5.6,1.55,17.96,10.95,22.84,14.21l11.24,7.5,19.73,14.34,21.17,15.28c-.56-4.19-1.32-6.17-2.71-10.46,15.91,4.36,35.59,18.68,27.6,38.93-1.78,4.52,5.96,5.98,8.92,12.06l9.11,18.69c9.79,6.67,17.29,14.48,25.1,23.07,4.18,4.6,10.09,7.02,11.04,14.12l1.96,14.64c1.95,14.55,7.72,43.11,6.97,57.81ZM1417.39,353.72c-.72-6.03-3.03-10.54-7.1-13.48-2.85,6.3,1.18,13.23,7.1,13.48ZM1420.15,496.33l-6.03-7.1c-12.38-14.58-18.27-23.57-20.93-43.43-2.4,4.15-1.49,7.95-1.18,12.83l-3.26-4.11c2.21,9.39,6.4,17.06,11.65,24.71,3.15,4.58,14.05,15.54,19.75,17.09Z"/>
      <path class="cls-9" d="M1449.91,444.66c.17.98,1.44,2.72,2.22,3.46l7.5,7.12-.64-3.97-.87-5.83.86-.79c6.61,7.54,11.98,16.02,16.22,25.65,2.05,4.65,2.88,9.91,2.7,14.97l-.7,20.25c3.83-7.83,1.95-18.89,5.45-27.02,12.01,13.03,23.09,34.06,24.53,50.85l2.21-3.69c1.25,2.94,2.14,5.22,2.65,7.68,1.67,8.2-7.43,26.81-10.04,17.4l-4.07,5.85c-.78,1.12-3.49,2.1-4.98,2.61l-3.05,1.04c-6.91-.33-15.78.87-22.24-2.46-24.33-12.56-26.26-40.66-24.19-39.68l1.84.87,3.14,1.49c-.08.47-.35,1.35-.5,1.86.87.98,2.25,1.69,1.56-.38-.64-1.99.27-5.13,2.26-6.44l5.33,5.14,2.37-13.54c.89-5.08-.39-19.56-4.4-20.73-7.73-13.97.86-11.96-6.85-33.26-1.14-3.16-1.77-5.76-2.62-9.51l4.3,1.06Z"/>
      <path class="cls-2" d="M1380.97,406.64l-3.83,1.02-14.76-.41c-3.42-.13-6.53-3.38-5.93-6.77,10.44,6.44,14.38-.75,25.69-2.58,5.77-.93,11.43,5.4,11.4,10.79-.05,10.09-7.17,22.36-18.27,19.98,3.23-9.03,13.03-10.41,12.8-17.47-.05-1.71-1.79-5.12-3.23-6.13-.84-.59-2.95,1.32-3.87,1.57Z"/>
      <path class="cls-9" d="M1527.94,507.44l-.18-4.14-3.3,1.34,1.51-9.65,2.31-.2,1.46-3.39c.07,3.06.13,7.59-.7,11.22l-1.1,4.82Z"/>
      <path class="cls-9" d="M1529.69,489.48c0-.07.1-.99.13-1.16-.02.3-.14.86-.13,1.16Z"/>
      <path class="cls-2" d="M1512.03,533.36c-.5-2.47-1.4-4.74-2.65-7.68l-2.21,3.69c-1.44-16.79-12.51-37.83-24.53-50.85-3.5,8.13-1.62,19.19-5.45,27.02l.7-20.25c.17-5.05-.65-10.32-2.7-14.97-4.24-9.63-9.61-18.11-16.22-25.65-1.12-5.08-7.94-14.33-12.08-17.56l11.22,18.34.87,5.83.64,3.97-7.5-7.12c-.78-.74-2.05-2.48-2.22-3.46-.44-2.56-1.53-7.6-2.56-10.43-9.53-7.46-17.51-16.81-22.17-27.56.77.1,2.43.87,3.05,1.55l6.82,7.51c.82.9,2.9,2.25,3.92,2.85,1.67,2.69,3.96,4.92,6.95,6.87-2.37-2.91-4.54-5.56-6.89-8.03-10.72-11.25-19.09-24.44-25.05-38.78-.54-1.31-1.79-3.36-2.69-4.94l-11.17-19.77c-.17-.42-.66-1.5-.42-1.3s2.14.43,2.42.73c4.4,4.84,10.35,13.47,13.9,20.05,7.29,13.55,14.49,25.74,22.97,38.56l2.05-3.53c8.95,3.12,7.16,10.12,12.44,17.54,1.75-6.41,1.03-11.91,1.1-18.35.09-8.7,1.13-16.94,2.87-25.1l.9,10.2,2.41-6.46.28,15.78,2.58-10.51.14,12.06c.08,6.63,1.36,12.32,5.36,17.7,8.53,11.46,17.49,22.21,27.12,32.82,4.67,5.14,8.72,9.65,12.07,16.04,17.12,32.65,9.69,76.88,7.12,69.05l-.82-2.48c-.52-1.57-1.37-3.11-2.59-3.36ZM1440.97,413.09c0-.27-.22-.5-.5-.5s-.5.22-.5.5.22.5.5.5.5-.22.5-.5Z"/>
      <path class="cls-2" d="M1420.15,496.33c-5.69-1.55-16.6-12.5-19.75-17.09-5.25-7.65-9.44-15.32-11.65-24.71l3.26,4.11c-.31-4.89-1.22-8.68,1.18-12.83,2.66,19.85,8.55,28.85,20.93,43.43l6.03,7.1Z"/>
      <path class="cls-2" d="M1449.52,521.94l-1.56.38c.15-.51.42-1.38.5-1.86,1-6.24,3.71-18.39,5.46-24.64,1.13-4.04,1.28-6.5,1.17-9.45,4.01,1.17,5.29,15.65,4.4,20.73l-2.37,13.54-5.33-5.14c-2,1.3-2.9,4.44-2.26,6.44Z"/>
      <path class="cls-9" d="M1439.03,417.42l-.06,1.16c-1.02-.59-3.1-1.94-3.92-2.85l-6.82-7.51c-.62-.68-2.28-1.45-3.05-1.55-.89-2.05-1.72-4.83-2.93-6.99-3.04-5.46-5.41-10.57-7.66-16.35l-1.54-3.94.92-.75c5.96,14.35,14.34,27.53,25.05,38.78Z"/>
      <path class="cls-2" d="M1417.39,353.72c-5.92-.25-9.95-7.18-7.1-13.48,4.08,2.94,6.38,7.45,7.1,13.48Z"/>
      <path class="cls-4" d="M1458.98,444.65l-.86.79-11.22-18.34c4.14,3.23,10.96,12.48,12.08,17.56Z"/>
      <path class="cls-4" d="M1449.52,521.94c.7,2.07-.69,1.36-1.56.38l1.56-.38Z"/>
      <path class="cls-4" d="M1438.97,418.58l.06-1.16c2.35,2.47,4.52,5.12,6.89,8.03-2.98-1.95-5.28-4.18-6.95-6.87Z"/>
      <circle class="cls-4" cx="1440.47" cy="413.09" r=".5"/>
    </g>
    <g>
      <polyline class="cls-6" points="1158.02 181.7 1158.02 163.59 1176.13 163.59"/>
      <polyline class="cls-6" points="1658.02 645.48 1658.02 663.59 1639.91 663.59"/>
    </g>
  </g>
</svg>